<?xml version="1.0" encoding="UTF-8"?>
<svg xmlns="http://www.w3.org/2000/svg" xmlns:xlink="http://www.w3.org/1999/xlink" width="32px" height="px" viewBox="0 0 32 32" version="1.1">
<defs>
<linearGradient id="linear0" gradientUnits="userSpaceOnUse" x1="0.499733" y1="-0.000235525" x2="0.499733" y2="0.999899" gradientTransform="matrix(31.617188,0,0,31.617188,0.1875,0.1875)">
<stop offset="0" style="stop-color:rgb(97.647059%,66.666667%,29.411765%);stop-opacity:1;"/>
<stop offset="1" style="stop-color:rgb(96.862745%,57.647059%,10.196078%);stop-opacity:1;"/>
</linearGradient>
</defs>
<g id="surface1">
<path style=" stroke:none;fill-rule:nonzero;fill:url(#linear0);" d="M 31.519531 19.871094 C 29.382812 28.445312 20.695312 33.660156 12.132812 31.519531 C 3.554688 29.382812 -1.660156 20.695312 0.480469 12.128906 C 2.617188 3.554688 11.292969 -1.660156 19.871094 0.480469 C 28.433594 2.605469 33.660156 11.292969 31.519531 19.871094 Z M 31.519531 19.871094 "/>
<path style=" stroke:none;fill-rule:nonzero;fill:rgb(100%,100%,100%);fill-opacity:1;" d="M 23.617188 14.007812 C 23.929688 11.882812 22.316406 10.730469 20.09375 9.96875 L 20.816406 7.082031 L 19.066406 6.644531 L 18.367188 9.457031 C 17.90625 9.34375 17.429688 9.230469 16.957031 9.132812 L 17.65625 6.304688 L 15.90625 5.867188 L 15.191406 8.742188 C 14.804688 8.65625 14.429688 8.570312 14.066406 8.480469 L 14.066406 8.46875 L 11.644531 7.867188 L 11.179688 9.742188 C 11.179688 9.742188 12.480469 10.042969 12.457031 10.054688 C 13.167969 10.230469 13.292969 10.707031 13.269531 11.082031 L 12.441406 14.367188 C 12.492188 14.382812 12.554688 14.394531 12.628906 14.429688 C 12.566406 14.417969 12.503906 14.40625 12.441406 14.382812 L 11.292969 18.980469 C 11.207031 19.195312 10.980469 19.519531 10.492188 19.394531 C 10.503906 19.417969 9.21875 19.082031 9.21875 19.082031 L 8.34375 21.09375 L 10.628906 21.667969 C 11.054688 21.78125 11.46875 21.882812 11.878906 21.992188 L 11.15625 24.90625 L 12.90625 25.34375 L 13.628906 22.457031 C 14.105469 22.582031 14.582031 22.707031 15.03125 22.820312 L 14.316406 25.695312 L 16.066406 26.132812 L 16.792969 23.21875 C 19.792969 23.78125 22.042969 23.554688 22.980469 20.84375 C 23.742188 18.667969 22.941406 17.40625 21.367188 16.582031 C 22.53125 16.320312 23.394531 15.554688 23.617188 14.007812 Z M 19.605469 19.632812 C 19.066406 21.804688 15.394531 20.632812 14.207031 20.332031 L 15.167969 16.46875 C 16.355469 16.769531 20.179688 17.355469 19.605469 19.632812 Z M 20.15625 13.96875 C 19.65625 15.957031 16.605469 14.945312 15.617188 14.695312 L 16.492188 11.195312 C 17.480469 11.445312 20.667969 11.90625 20.15625 13.96875 Z M 20.15625 13.96875 "/>
</g>
</svg>
