<?xml version="1.0" encoding="UTF-8"?>
<svg xmlns="http://www.w3.org/2000/svg" xmlns:xlink="http://www.w3.org/1999/xlink" width="32px" height="px" viewBox="0 0 32 32" version="1.1">
<g id="surface1">
<path style=" stroke:none;fill-rule:nonzero;fill:rgb(7.45098%,7.45098%,7.45098%);fill-opacity:1;" d="M 22.308594 1.464844 L 20.460938 1.464844 L 22.382812 3.546875 L 22.382812 4.539062 L 18.429688 4.539062 L 18.429688 3.378906 L 20.347656 3.378906 L 18.429688 1.292969 L 18.429688 0.300781 L 22.308594 0.300781 Z M 17.644531 1.464844 L 15.796875 1.464844 L 17.71875 3.546875 L 17.71875 4.539062 L 13.765625 4.539062 L 13.765625 3.378906 L 15.683594 3.378906 L 13.765625 1.292969 L 13.765625 0.300781 L 17.644531 0.300781 Z M 13.027344 1.511719 L 11.035156 1.511719 L 11.035156 3.328125 L 13.027344 3.328125 L 13.027344 4.539062 L 9.617188 4.539062 L 9.617188 0.300781 L 13.027344 0.300781 Z M 13.027344 1.511719 "/>
<path style=" stroke:none;fill-rule:nonzero;fill:rgb(8.235294%,44.705882%,71.372549%);fill-opacity:1;" d="M 6.902344 29.175781 L 4.878906 6.472656 L 27.121094 6.472656 L 25.09375 29.171875 L 15.984375 31.699219 Z M 6.902344 29.175781 "/>
<path style=" stroke:none;fill-rule:nonzero;fill:rgb(20%,66.27451%,86.27451%);fill-opacity:1;" d="M 16 29.769531 L 23.359375 27.726562 L 25.089844 8.328125 L 16 8.328125 Z M 16 29.769531 "/>
<path style=" stroke:none;fill-rule:nonzero;fill:rgb(100%,100%,100%);fill-opacity:1;" d="M 16 16.554688 L 19.683594 16.554688 L 19.9375 13.703125 L 16 13.703125 L 16 10.917969 L 22.980469 10.917969 L 22.914062 11.667969 L 22.230469 19.339844 L 16 19.339844 Z M 16 16.554688 "/>
<path style=" stroke:none;fill-rule:nonzero;fill:rgb(92.156863%,92.156863%,92.156863%);fill-opacity:1;" d="M 16.015625 23.785156 L 16.003906 23.789062 L 12.902344 22.953125 L 12.703125 20.730469 L 9.910156 20.730469 L 10.300781 25.105469 L 16.003906 26.6875 L 16.015625 26.683594 Z M 16.015625 23.785156 "/>
<path style=" stroke:none;fill-rule:nonzero;fill:rgb(100%,100%,100%);fill-opacity:1;" d="M 19.449219 19.222656 L 19.113281 22.949219 L 16.007812 23.789062 L 16.007812 26.6875 L 21.714844 25.105469 L 21.757812 24.632812 L 22.242188 19.222656 Z M 19.449219 19.222656 "/>
<path style=" stroke:none;fill-rule:nonzero;fill:rgb(92.156863%,92.156863%,92.156863%);fill-opacity:1;" d="M 16.007812 10.917969 L 16.007812 13.703125 L 9.285156 13.703125 L 9.226562 13.078125 L 9.101562 11.667969 L 9.035156 10.917969 Z M 16 16.554688 L 16 19.339844 L 12.9375 19.339844 L 12.882812 18.714844 L 12.753906 17.300781 L 12.6875 16.554688 Z M 16 16.554688 "/>
</g>
</svg>
