<?xml version="1.0" encoding="UTF-8"?>
<svg xmlns="http://www.w3.org/2000/svg" xmlns:xlink="http://www.w3.org/1999/xlink" width="32px" height="px" viewBox="0 0 32 32" version="1.1">
<g id="surface1">
<path style=" stroke:none;fill-rule:nonzero;fill:rgb(34.509804%,39.607843%,94.901961%);fill-opacity:1;" d="M 5.125 12.875 C 5.703125 12.976562 6.257812 13.152344 6.773438 13.394531 C 7.679688 14.746094 8.128906 16.269531 7.964844 18.027344 C 7.273438 18.546875 6.601562 18.859375 5.9375 19.066406 C 5.777344 18.84375 5.632812 18.601562 5.503906 18.351562 C 5.746094 18.261719 5.972656 18.148438 6.191406 18.019531 C 6.132812 17.976562 6.078125 17.933594 6.023438 17.886719 C 4.722656 18.503906 3.292969 18.503906 1.976562 17.886719 C 1.921875 17.933594 1.867188 17.976562 1.808594 18.019531 C 2.023438 18.148438 2.253906 18.261719 2.492188 18.351562 C 2.367188 18.601562 2.21875 18.839844 2.058594 19.066406 C 1.398438 18.859375 0.726562 18.546875 0.0351562 18.027344 C -0.109375 16.511719 0.175781 14.972656 1.21875 13.394531 C 1.738281 13.152344 2.292969 12.976562 2.871094 12.875 C 2.941406 13.003906 3.027344 13.175781 3.085938 13.3125 C 3.6875 13.222656 4.296875 13.222656 4.914062 13.3125 C 4.972656 13.175781 5.054688 13.003906 5.125 12.875 Z M 20.996094 14.855469 C 21.4375 14.855469 21.800781 14.949219 22.09375 15.140625 L 22.09375 15.960938 C 21.988281 15.890625 21.871094 15.832031 21.734375 15.785156 C 21.597656 15.742188 21.453125 15.71875 21.296875 15.71875 C 21.023438 15.71875 20.808594 15.769531 20.65625 15.871094 C 20.5 15.972656 20.421875 16.105469 20.421875 16.273438 C 20.421875 16.433594 20.5 16.566406 20.648438 16.671875 C 20.796875 16.773438 21.015625 16.824219 21.300781 16.824219 C 21.445312 16.824219 21.589844 16.804688 21.734375 16.761719 C 21.875 16.71875 22 16.664062 22.101562 16.601562 L 22.101562 17.398438 C 21.777344 17.59375 21.402344 17.695312 20.976562 17.695312 C 20.621094 17.691406 20.3125 17.628906 20.0625 17.503906 C 19.808594 17.378906 19.617188 17.207031 19.492188 16.992188 C 19.363281 16.773438 19.300781 16.53125 19.300781 16.261719 C 19.300781 15.992188 19.367188 15.75 19.5 15.539062 C 19.628906 15.324219 19.824219 15.160156 20.078125 15.039062 C 20.335938 14.914062 20.640625 14.855469 20.996094 14.855469 Z M 17.6875 14.855469 C 17.933594 14.855469 18.160156 14.882812 18.367188 14.9375 C 18.574219 14.988281 18.742188 15.058594 18.878906 15.144531 L 18.878906 15.847656 C 18.738281 15.765625 18.582031 15.699219 18.398438 15.648438 C 18.21875 15.597656 18.035156 15.574219 17.84375 15.574219 C 17.566406 15.574219 17.429688 15.621094 17.429688 15.71875 C 17.429688 15.761719 17.449219 15.796875 17.492188 15.820312 C 17.535156 15.839844 17.613281 15.863281 17.726562 15.890625 L 18.167969 15.96875 C 18.457031 16.019531 18.671875 16.109375 18.8125 16.238281 C 18.953125 16.363281 19.023438 16.554688 19.023438 16.800781 C 19.023438 17.074219 18.90625 17.292969 18.671875 17.453125 C 18.4375 17.613281 18.109375 17.695312 17.679688 17.695312 C 17.425781 17.691406 17.183594 17.660156 16.945312 17.597656 C 16.707031 17.535156 16.492188 17.445312 16.300781 17.324219 L 16.300781 16.578125 C 16.445312 16.691406 16.636719 16.785156 16.878906 16.859375 C 17.121094 16.933594 17.355469 16.96875 17.582031 16.96875 C 17.6875 16.96875 17.769531 16.953125 17.824219 16.925781 C 17.875 16.898438 17.902344 16.863281 17.902344 16.824219 C 17.902344 16.78125 17.890625 16.742188 17.859375 16.710938 C 17.832031 16.683594 17.773438 16.65625 17.6875 16.636719 L 17.160156 16.515625 C 16.855469 16.441406 16.640625 16.34375 16.515625 16.214844 C 16.386719 16.085938 16.324219 15.921875 16.324219 15.714844 C 16.324219 15.539062 16.378906 15.390625 16.492188 15.257812 C 16.601562 15.128906 16.761719 15.03125 16.964844 14.960938 C 17.171875 14.890625 17.414062 14.855469 17.6875 14.855469 Z M 32 14.363281 L 32 17.601562 L 30.921875 17.601562 L 30.921875 17.015625 C 30.828125 17.234375 30.691406 17.40625 30.503906 17.519531 C 30.320312 17.636719 30.089844 17.691406 29.816406 17.691406 C 29.570312 17.691406 29.359375 17.632812 29.175781 17.511719 C 28.996094 17.390625 28.855469 17.222656 28.757812 17.011719 C 28.660156 16.800781 28.609375 16.5625 28.609375 16.292969 C 28.605469 16.019531 28.65625 15.769531 28.765625 15.550781 C 28.871094 15.332031 29.023438 15.160156 29.21875 15.039062 C 29.414062 14.917969 29.636719 14.855469 29.886719 14.855469 C 30.390625 14.855469 30.734375 15.074219 30.910156 15.515625 L 30.921875 15.539062 L 30.921875 14.363281 Z M 24.089844 14.855469 C 24.441406 14.855469 24.742188 14.914062 24.996094 15.035156 C 25.246094 15.152344 25.4375 15.320312 25.570312 15.527344 C 25.703125 15.738281 25.769531 15.980469 25.769531 16.253906 C 25.769531 16.523438 25.703125 16.765625 25.570312 16.984375 C 25.4375 17.207031 25.246094 17.378906 24.992188 17.503906 C 24.738281 17.628906 24.4375 17.691406 24.089844 17.691406 C 23.746094 17.691406 23.445312 17.628906 23.191406 17.503906 C 22.9375 17.378906 22.742188 17.207031 22.609375 16.988281 C 22.476562 16.769531 22.410156 16.523438 22.410156 16.253906 C 22.410156 15.984375 22.476562 15.742188 22.609375 15.53125 C 22.742188 15.320312 22.9375 15.152344 23.1875 15.035156 C 23.441406 14.914062 23.742188 14.855469 24.089844 14.855469 Z M 15.820312 15.589844 L 15.820312 17.617188 L 14.742188 17.617188 L 14.742188 15.589844 C 15.074219 15.738281 15.480469 15.742188 15.820312 15.589844 Z M 28.015625 14.914062 C 28.171875 14.914062 28.304688 14.949219 28.414062 15.019531 L 28.414062 15.992188 C 28.304688 15.917969 28.160156 15.878906 27.980469 15.878906 C 27.746094 15.878906 27.5625 15.953125 27.4375 16.097656 C 27.3125 16.242188 27.25 16.46875 27.25 16.773438 L 27.25 17.601562 L 26.167969 17.601562 L 26.167969 14.972656 L 27.226562 14.972656 L 27.226562 15.808594 C 27.285156 15.503906 27.378906 15.277344 27.511719 15.132812 C 27.640625 14.984375 27.808594 14.914062 28.015625 14.914062 Z M 12.464844 14.453125 C 12.878906 14.453125 13.230469 14.519531 13.515625 14.652344 C 13.800781 14.785156 14.015625 14.96875 14.160156 15.203125 C 14.300781 15.4375 14.371094 15.707031 14.371094 16.011719 C 14.371094 16.308594 14.296875 16.578125 14.148438 16.816406 C 14 17.058594 13.777344 17.25 13.472656 17.390625 C 13.167969 17.53125 12.792969 17.601562 12.34375 17.601562 L 10.746094 17.601562 L 10.746094 14.453125 Z M 2.671875 15.460938 C 2.269531 15.460938 1.953125 15.828125 1.953125 16.277344 C 1.953125 16.726562 2.277344 17.097656 2.671875 17.097656 C 3.074219 17.097656 3.390625 16.726562 3.390625 16.277344 C 3.394531 15.828125 3.074219 15.460938 2.671875 15.460938 Z M 5.328125 15.460938 C 4.925781 15.460938 4.609375 15.828125 4.609375 16.277344 C 4.609375 16.726562 4.933594 17.097656 5.328125 17.097656 C 5.730469 17.097656 6.046875 16.726562 6.046875 16.277344 C 6.054688 15.828125 5.730469 15.460938 5.328125 15.460938 Z M 24.089844 15.683594 C 23.902344 15.683594 23.753906 15.738281 23.648438 15.84375 C 23.542969 15.949219 23.488281 16.09375 23.488281 16.273438 C 23.488281 16.453125 23.542969 16.597656 23.648438 16.707031 C 23.753906 16.816406 23.902344 16.871094 24.089844 16.871094 C 24.277344 16.871094 24.421875 16.816406 24.527344 16.707031 C 24.636719 16.597656 24.691406 16.453125 24.691406 16.273438 C 24.691406 16.09375 24.636719 15.949219 24.527344 15.84375 C 24.421875 15.738281 24.277344 15.683594 24.089844 15.683594 Z M 30.328125 15.695312 C 30.144531 15.695312 30 15.75 29.890625 15.855469 C 29.78125 15.964844 29.726562 16.101562 29.726562 16.273438 C 29.726562 16.441406 29.78125 16.582031 29.890625 16.691406 C 30 16.796875 30.144531 16.851562 30.320312 16.851562 C 30.503906 16.851562 30.648438 16.796875 30.761719 16.6875 C 30.871094 16.578125 30.925781 16.4375 30.925781 16.261719 C 30.925781 16.09375 30.871094 15.957031 30.765625 15.855469 C 30.65625 15.75 30.511719 15.695312 30.328125 15.695312 Z M 12.386719 15.253906 L 11.847656 15.253906 L 11.847656 16.800781 L 12.324219 16.800781 C 12.601562 16.800781 12.816406 16.730469 12.96875 16.589844 C 13.117188 16.445312 13.191406 16.253906 13.191406 16.007812 C 13.191406 15.777344 13.125 15.597656 12.992188 15.460938 C 12.859375 15.324219 12.65625 15.253906 12.386719 15.253906 Z M 15.28125 14.265625 C 15.578125 14.265625 15.820312 14.484375 15.820312 14.757812 C 15.820312 15.03125 15.578125 15.25 15.28125 15.25 C 14.984375 15.25 14.742188 15.03125 14.742188 14.757812 C 14.742188 14.484375 14.984375 14.265625 15.28125 14.265625 Z M 15.28125 14.265625 "/>
</g>
</svg>
