<?xml version="1.0" encoding="UTF-8"?>
<svg xmlns="http://www.w3.org/2000/svg" xmlns:xlink="http://www.w3.org/1999/xlink" width="32px" height="px" viewBox="0 0 32 32" version="1.1">
<g id="surface1">
<path style=" stroke:none;fill-rule:nonzero;fill:rgb(94.117647%,23.529412%,18.039216%);fill-opacity:1;" d="M 31.394531 14.574219 L 17.425781 0.605469 C 16.621094 -0.199219 15.316406 -0.199219 14.511719 0.605469 L 11.609375 3.503906 L 15.289062 7.183594 C 16.148438 6.882812 17.128906 7.089844 17.808594 7.769531 C 18.472656 8.433594 18.695312 9.417969 18.390625 10.304688 L 21.9375 13.851562 C 22.796875 13.554688 23.785156 13.746094 24.46875 14.433594 C 25.425781 15.390625 25.425781 16.945312 24.46875 17.902344 C 23.511719 18.859375 21.957031 18.859375 21 17.902344 C 20.28125 17.179688 20.101562 16.121094 20.46875 15.234375 L 17.160156 11.925781 L 17.160156 20.632812 C 17.398438 20.75 17.617188 20.90625 17.808594 21.09375 C 18.765625 22.050781 18.765625 23.605469 17.808594 24.5625 C 16.851562 25.519531 15.296875 25.519531 14.339844 24.5625 C 13.878906 24.101562 13.621094 23.480469 13.621094 22.828125 C 13.621094 22.179688 13.878906 21.554688 14.339844 21.09375 C 14.578125 20.859375 14.839844 20.679688 15.144531 20.558594 L 15.144531 11.773438 C 14.851562 11.652344 14.578125 11.476562 14.339844 11.238281 C 13.636719 10.535156 13.429688 9.476562 13.8125 8.558594 L 10.183594 4.929688 L 0.601562 14.5 C 0.214844 14.886719 0 15.410156 0 15.957031 C 0 16.503906 0.214844 17.027344 0.601562 17.414062 L 14.574219 31.386719 C 15.378906 32.191406 16.683594 32.191406 17.488281 31.386719 L 31.394531 17.5 C 31.78125 17.113281 32 16.589844 32 16.042969 C 32 15.496094 31.78125 14.972656 31.394531 14.585938 "/>
</g>
</svg>
