<?xml version="1.0" encoding="UTF-8"?>
<svg xmlns="http://www.w3.org/2000/svg" xmlns:xlink="http://www.w3.org/1999/xlink" width="32px" height="px" viewBox="0 0 32 32" version="1.1">
<g id="surface1">
<path style=" stroke:none;fill-rule:nonzero;fill:rgb(89.411765%,30.196078%,14.901961%);fill-opacity:1;" d="M 6.964844 29.089844 L 4.953125 6.535156 L 27.046875 6.535156 L 25.035156 29.085938 L 15.988281 31.59375 Z M 6.964844 29.089844 "/>
<path style=" stroke:none;fill-rule:nonzero;fill:rgb(94.509804%,39.607843%,16.078431%);fill-opacity:1;" d="M 16 29.675781 L 23.3125 27.648438 L 25.03125 8.378906 L 16 8.378906 Z M 16 29.675781 "/>
<path style=" stroke:none;fill-rule:nonzero;fill:rgb(92.156863%,92.156863%,92.156863%);fill-opacity:1;" d="M 16 16.746094 L 12.339844 16.746094 L 12.085938 13.910156 L 16 13.910156 L 16 11.144531 L 9.0625 11.144531 L 9.128906 11.886719 L 9.808594 19.511719 L 16 19.511719 Z M 16 23.929688 L 15.988281 23.929688 L 12.90625 23.097656 L 12.710938 20.894531 L 9.933594 20.894531 L 10.320312 25.234375 L 15.988281 26.808594 L 16 26.804688 Z M 16 23.929688 "/>
<path style=" stroke:none;fill-rule:nonzero;fill:rgb(0%,0%,0%);fill-opacity:1;" d="M 7.007812 0.40625 L 8.414062 0.40625 L 8.414062 1.796875 L 9.699219 1.796875 L 9.699219 0.40625 L 11.105469 0.40625 L 11.105469 4.613281 L 9.699219 4.613281 L 9.699219 3.203125 L 8.414062 3.203125 L 8.414062 4.613281 L 7.007812 4.613281 Z M 12.953125 1.800781 L 11.714844 1.800781 L 11.714844 0.40625 L 15.597656 0.40625 L 15.597656 1.800781 L 14.359375 1.800781 L 14.359375 4.613281 L 12.953125 4.613281 Z M 16.214844 0.40625 L 17.679688 0.40625 L 18.582031 1.882812 L 19.480469 0.40625 L 20.949219 0.40625 L 20.949219 4.613281 L 19.546875 4.613281 L 19.546875 2.527344 L 18.582031 4.023438 L 18.554688 4.023438 L 17.589844 2.527344 L 17.589844 4.613281 L 16.214844 4.613281 Z M 21.648438 0.40625 L 23.054688 0.40625 L 23.054688 3.222656 L 25.03125 3.222656 L 25.03125 4.613281 L 21.648438 4.613281 Z M 21.648438 0.40625 "/>
<path style=" stroke:none;fill-rule:nonzero;fill:rgb(100%,100%,100%);fill-opacity:1;" d="M 15.992188 16.746094 L 15.992188 19.511719 L 19.398438 19.511719 L 19.074219 23.097656 L 15.992188 23.929688 L 15.992188 26.808594 L 21.660156 25.234375 L 21.703125 24.769531 L 22.351562 17.488281 L 22.421875 16.746094 Z M 15.992188 11.144531 L 15.992188 13.910156 L 22.671875 13.910156 L 22.726562 13.289062 L 22.851562 11.886719 L 22.917969 11.144531 Z M 15.992188 11.144531 "/>
</g>
</svg>
