<?xml version="1.0" encoding="UTF-8"?>
<!DOCTYPE svg PUBLIC "-//W3C//DTD SVG 1.1//EN" "http://www.w3.org/Graphics/SVG/1.1/DTD/svg11.dtd">
<svg xmlns="http://www.w3.org/2000/svg" version="1.1" width="213px" height="300px" style="shape-rendering:geometricPrecision; text-rendering:geometricPrecision; image-rendering:optimizeQuality; fill-rule:evenodd; clip-rule:evenodd" xmlns:xlink="http://www.w3.org/1999/xlink">
<g><path style="opacity:0.905" fill="#000000" d="M 84.5,-0.5 C 89.5,-0.5 94.5,-0.5 99.5,-0.5C 99.5,13.1667 99.5,26.8333 99.5,40.5C 88.1667,40.5 76.8333,40.5 65.5,40.5C 65.5,35.5 65.5,30.5 65.5,25.5C 71.8333,25.5 78.1667,25.5 84.5,25.5C 84.5,16.8333 84.5,8.16667 84.5,-0.5 Z"/></g>
<g><path style="opacity:0.908" fill="#000000" d="M 111.5,-0.5 C 123.167,-0.5 134.833,-0.5 146.5,-0.5C 146.5,4.5 146.5,9.5 146.5,14.5C 142.486,14.3345 138.486,14.5012 134.5,15C 138.333,18.8333 142.167,22.6667 146,26.5C 146.499,31.1548 146.666,35.8215 146.5,40.5C 134.833,40.5 123.167,40.5 111.5,40.5C 111.5,35.8333 111.5,31.1667 111.5,26.5C 115.846,26.6657 120.179,26.499 124.5,26C 120.007,22.5066 115.841,18.6733 112,14.5C 111.501,9.51108 111.334,4.51108 111.5,-0.5 Z"/></g>
<g><path style="opacity:1" fill="#e7a42b" d="M -0.5,57.5 C 70.5,57.5 141.5,57.5 212.5,57.5C 212.5,61.5 212.5,65.5 212.5,69.5C 205.906,138.029 199.239,206.695 192.5,275.5C 165,283.338 137.667,291.338 110.5,299.5C 107.5,299.5 104.5,299.5 101.5,299.5C 74.333,291.338 46.9997,283.338 19.5,275.5C 18.3378,268.878 17.5044,262.212 17,255.5C 11.5461,193.934 5.71282,131.934 -0.5,69.5C -0.5,65.5 -0.5,61.5 -0.5,57.5 Z"/></g>
<g><path style="opacity:1" fill="#f2be23" d="M 105.5,253.5 C 106.492,253.672 107.158,253.338 107.5,252.5C 125.13,247.676 142.796,243.009 160.5,238.5C 162.833,211.166 165.167,183.833 167.5,156.5C 146.833,156.5 126.167,156.5 105.5,156.5C 105.5,147.5 105.5,138.5 105.5,129.5C 105.833,129.5 106.167,129.5 106.5,129.5C 117.5,129.5 128.5,129.5 139.5,129.5C 140.098,134.813 140.431,140.146 140.5,145.5C 149.5,145.5 158.5,145.5 167.5,145.5C 165.697,131.135 163.697,116.801 161.5,102.5C 143.167,102.5 124.833,102.5 106.5,102.5C 106.167,102.5 105.833,102.5 105.5,102.5C 105.5,93.5 105.5,84.5 105.5,75.5C 134.833,75.5 164.167,75.5 193.5,75.5C 186.808,137.395 181.141,199.395 176.5,261.5C 153.025,267.792 129.692,274.459 106.5,281.5C 105.502,272.19 105.168,262.857 105.5,253.5 Z"/></g>
<g><path style="opacity:1" fill="#fefefc" d="M 106.5,102.5 C 124.833,102.5 143.167,102.5 161.5,102.5C 163.697,116.801 165.697,131.135 167.5,145.5C 158.5,145.5 149.5,145.5 140.5,145.5C 140.431,140.146 140.098,134.813 139.5,129.5C 128.5,129.5 117.5,129.5 106.5,129.5C 106.5,120.5 106.5,111.5 106.5,102.5 Z"/></g>
<g><path style="opacity:1" fill="#ececed" d="M 105.5,102.5 C 105.833,102.5 106.167,102.5 106.5,102.5C 106.5,111.5 106.5,120.5 106.5,129.5C 106.167,129.5 105.833,129.5 105.5,129.5C 95.5,129.5 85.5,129.5 75.5,129.5C 75.2141,138.502 74.8808,147.502 74.5,156.5C 84.8333,156.5 95.1667,156.5 105.5,156.5C 105.5,165.167 105.5,173.833 105.5,182.5C 86.1667,182.5 66.8333,182.5 47.5,182.5C 47.5,179.833 47.5,177.167 47.5,174.5C 49.4266,150.494 51.4266,126.494 53.5,102.5C 70.8333,102.5 88.1667,102.5 105.5,102.5 Z"/></g>
<g><path style="opacity:1" fill="#e7a42e" d="M 105.5,129.5 C 105.5,138.5 105.5,147.5 105.5,156.5C 95.1667,156.5 84.8333,156.5 74.5,156.5C 74.8808,147.502 75.2141,138.502 75.5,129.5C 85.5,129.5 95.5,129.5 105.5,129.5 Z"/></g>
<g><path style="opacity:1" fill="#fefefd" d="M 105.5,156.5 C 126.167,156.5 146.833,156.5 167.5,156.5C 165.167,183.833 162.833,211.166 160.5,238.5C 142.796,243.009 125.13,247.676 107.5,252.5C 106.185,243.598 106.185,234.598 107.5,225.5C 116.744,222.522 126.078,219.856 135.5,217.5C 135.637,207.461 136.304,197.461 137.5,187.5C 138.451,186.081 138.784,184.415 138.5,182.5C 127.5,182.5 116.5,182.5 105.5,182.5C 105.5,173.833 105.5,165.167 105.5,156.5 Z"/></g>
<g><path style="opacity:1" fill="#efddb9" d="M 47.5,174.5 C 47.5,177.167 47.5,179.833 47.5,182.5C 66.8333,182.5 86.1667,182.5 105.5,182.5C 116.5,182.5 127.5,182.5 138.5,182.5C 138.784,184.415 138.451,186.081 137.5,187.5C 137.5,186.167 137.5,184.833 137.5,183.5C 126.833,183.5 116.167,183.5 105.5,183.5C 85.8333,183.5 66.1667,183.5 46.5,183.5C 46.19,180.287 46.5233,177.287 47.5,174.5 Z"/></g>
<g><path style="opacity:1" fill="#f1be22" d="M 105.5,183.5 C 116.167,183.5 126.833,183.5 137.5,183.5C 137.5,184.833 137.5,186.167 137.5,187.5C 136.304,197.461 135.637,207.461 135.5,217.5C 126.078,219.856 116.744,222.522 107.5,225.5C 106.833,225.5 106.167,225.5 105.5,225.5C 105.5,211.5 105.5,197.5 105.5,183.5 Z"/></g>
<g><path style="opacity:1" fill="#ececec" d="M 105.5,225.5 C 106.167,225.5 106.833,225.5 107.5,225.5C 106.185,234.598 106.185,243.598 107.5,252.5C 107.158,253.338 106.492,253.672 105.5,253.5C 87.788,248.708 70.1214,243.708 52.5,238.5C 50.1728,224.601 48.5062,210.601 47.5,196.5C 56.8333,196.5 66.1667,196.5 75.5,196.5C 75.174,203.606 75.8406,210.606 77.5,217.5C 86.7572,220.481 96.0905,223.147 105.5,225.5 Z"/></g>
</svg>
