<?xml version="1.0" encoding="UTF-8"?>
<svg xmlns="http://www.w3.org/2000/svg" xmlns:xlink="http://www.w3.org/1999/xlink" width="32px" height="px" viewBox="0 0 32 32" version="1.1">
<g id="surface1">
<path style=" stroke:none;fill-rule:nonzero;fill:rgb(0%,45.490196%,74.117647%);fill-opacity:1;" d="M 11.902344 24.53125 C 11.902344 24.53125 10.710938 25.222656 12.753906 25.457031 C 15.226562 25.738281 16.492188 25.699219 19.214844 25.183594 C 19.214844 25.183594 19.933594 25.632812 20.933594 26.023438 C 14.824219 28.640625 7.105469 25.871094 11.902344 24.53125 Z M 11.15625 21.113281 C 11.15625 21.113281 9.820312 22.101562 11.863281 22.316406 C 14.503906 22.585938 16.589844 22.609375 20.203125 21.914062 C 20.203125 21.914062 20.699219 22.421875 21.484375 22.699219 C 14.097656 24.859375 5.871094 22.867188 11.15625 21.113281 Z M 11.15625 21.113281 "/>
<path style=" stroke:none;fill-rule:nonzero;fill:rgb(91.764706%,17.647059%,18.039216%);fill-opacity:1;" d="M 17.449219 15.316406 C 18.957031 17.050781 17.054688 18.609375 17.054688 18.609375 C 17.054688 18.609375 20.878906 16.636719 19.121094 14.164062 C 17.484375 11.863281 16.226562 10.71875 23.03125 6.769531 C 23.03125 6.769531 12.347656 9.4375 17.449219 15.316406 Z M 17.449219 15.316406 "/>
<path style=" stroke:none;fill-rule:nonzero;fill:rgb(0%,45.490196%,74.117647%);fill-opacity:1;" d="M 25.53125 27.058594 C 25.53125 27.058594 26.414062 27.785156 24.558594 28.347656 C 21.035156 29.414062 9.882812 29.738281 6.785156 28.390625 C 5.671875 27.90625 7.761719 27.234375 8.417969 27.089844 C 9.101562 26.945312 9.492188 26.96875 9.492188 26.96875 C 8.253906 26.097656 1.488281 28.683594 6.058594 29.425781 C 18.511719 31.441406 28.761719 28.515625 25.53125 27.058594 Z M 12.476562 17.574219 C 12.476562 17.574219 6.804688 18.921875 10.46875 19.410156 C 12.015625 19.617188 15.097656 19.570312 17.972656 19.328125 C 20.320312 19.132812 22.675781 18.710938 22.675781 18.710938 C 22.675781 18.710938 21.847656 19.066406 21.25 19.472656 C 15.488281 20.988281 4.363281 20.285156 7.566406 18.734375 C 10.273438 17.425781 12.476562 17.574219 12.476562 17.574219 Z M 22.652344 23.261719 C 28.507812 20.21875 25.800781 17.296875 23.910156 17.6875 C 23.449219 17.785156 23.242188 17.867188 23.242188 17.867188 C 23.242188 17.867188 23.414062 17.597656 23.742188 17.484375 C 27.480469 16.167969 30.355469 21.359375 22.535156 23.414062 C 22.535156 23.414062 22.625 23.332031 22.652344 23.261719 Z M 22.652344 23.261719 "/>
<path style=" stroke:none;fill-rule:nonzero;fill:rgb(91.764706%,17.647059%,18.039216%);fill-opacity:1;" d="M 19.121094 0.398438 C 19.121094 0.398438 22.363281 3.640625 16.046875 8.628906 C 10.980469 12.628906 14.890625 14.910156 16.046875 17.515625 C 13.085938 14.847656 10.917969 12.5 12.375 10.3125 C 14.511719 7.105469 20.429688 5.546875 19.121094 0.398438 Z M 19.121094 0.398438 "/>
<path style=" stroke:none;fill-rule:nonzero;fill:rgb(0%,45.490196%,74.117647%);fill-opacity:1;" d="M 13.054688 31.503906 C 18.671875 31.863281 27.304688 31.304688 27.507812 28.644531 C 27.507812 28.644531 27.113281 29.652344 22.863281 30.453125 C 18.066406 31.355469 12.148438 31.25 8.640625 30.671875 C 8.640625 30.671875 9.359375 31.269531 13.054688 31.503906 Z M 13.054688 31.503906 "/>
</g>
</svg>
