<?xml version="1.0" standalone="no"?>
<!DOCTYPE svg PUBLIC "-//W3C//DTD SVG 20010904//EN"
 "http://www.w3.org/TR/2001/REC-SVG-20010904/DTD/svg10.dtd">
<svg version="1.0" xmlns="http://www.w3.org/2000/svg"
 width="213.000000pt" height="300.000000pt" viewBox="0 0 213.000000 300.000000"
 preserveAspectRatio="xMidYMid meet">

<g transform="translate(0.000000,300.000000) scale(0.100000,-0.100000)"
fill="#000000" stroke="none">
<path d="M860 2865 l0 -135 -95 0 -95 0 0 -70 0 -70 160 0 160 0 0 205 0 205
-65 0 -65 0 0 -135z"/>
<path d="M1130 2928 l0 -72 62 -63 62 -63 -62 0 -62 0 0 -65 0 -65 165 0 165
0 0 63 0 63 -60 59 c-33 33 -60 63 -60 67 0 4 27 8 60 8 l60 0 0 70 0 70 -165
0 -165 0 0 -72z"/>
</g>
</svg>
