<?xml version="1.0" encoding="UTF-8"?>
<svg xmlns="http://www.w3.org/2000/svg" xmlns:xlink="http://www.w3.org/1999/xlink" width="32px" height="px" viewBox="0 0 32 32" version="1.1">
<g id="surface1">
<path style=" stroke:none;fill-rule:evenodd;fill:rgb(50.196078%,70.980392%,88.627451%);fill-opacity:1;" d="M 31.554688 0.183594 C 22.5 0.179688 13.484375 0.179688 4.425781 0.179688 C 3.132812 0.179688 1.8125 0.179688 0.519531 0.183594 C 0.4375 0.183594 0.25 0.21875 0.25 0.242188 L 0.25 31.75 L 31.75 31.75 L 31.75 0.242188 C 31.75 0.21875 31.648438 0.183594 31.554688 0.183594 Z M 28.371094 28.667969 C 20.210938 28.65625 12.050781 28.660156 3.890625 28.660156 C 3.496094 28.660156 3.5 28.660156 3.5 28.253906 L 3.5 3.804688 C 3.5 3.402344 3.496094 3.5 3.894531 3.5 L 28.34375 3.5 C 28.753906 3.5 28.75 3.402344 28.75 3.824219 L 28.75 16.03125 C 28.75 20.113281 28.75 24.191406 28.757812 28.273438 C 28.761719 28.582031 28.6875 28.667969 28.371094 28.667969 Z M 14.203125 9.910156 C 12.539062 9.519531 10.859375 9.714844 9.183594 9.882812 C 8.828125 9.921875 8.761719 10.074219 8.761719 10.390625 C 8.773438 14.191406 8.75 17.992188 8.75 21.792969 L 8.75 22 L 11 22 L 11 17.535156 C 12.25 17.628906 13.394531 17.605469 14.511719 17.207031 C 16.304688 16.566406 17.199219 15.179688 17.101562 13.152344 C 17.023438 11.515625 15.996094 10.332031 14.203125 9.910156 Z M 13.714844 15.496094 C 12.917969 15.886719 12.070312 15.878906 11.214844 15.761719 C 11.148438 15.753906 11.046875 15.632812 11.046875 15.566406 C 11.035156 14.234375 11.039062 12.898438 11.039062 11.53125 C 11.820312 11.410156 12.5625 11.347656 13.304688 11.535156 C 14.222656 11.765625 14.753906 12.367188 14.855469 13.265625 C 14.964844 14.253906 14.542969 15.09375 13.714844 15.496094 Z M 22.042969 17.273438 C 21.675781 17.070312 21.273438 16.9375 20.890625 16.761719 C 20.539062 16.597656 20.183594 16.4375 19.847656 16.242188 C 19.613281 16.105469 19.507812 15.867188 19.507812 15.589844 C 19.507812 15.117188 19.832031 14.734375 20.382812 14.6875 C 20.796875 14.65625 21.222656 14.699219 21.632812 14.773438 C 21.976562 14.839844 22.300781 15 22.652344 15.121094 L 23.09375 13.554688 C 22.257812 13.148438 21.40625 12.996094 20.523438 13.027344 C 19.769531 13.054688 19.070312 13.246094 18.433594 13.679688 C 17.25 14.484375 16.671875 16.628906 18.445312 17.78125 C 18.898438 18.074219 19.421875 18.257812 19.910156 18.492188 C 20.214844 18.636719 20.53125 18.761719 20.820312 18.933594 C 21.183594 19.152344 21.308594 19.507812 21.242188 19.921875 C 21.183594 20.324219 20.910156 20.578125 20.535156 20.636719 C 20.113281 20.703125 19.667969 20.746094 19.253906 20.675781 C 18.671875 20.570312 18.105469 20.355469 17.511719 20.179688 C 17.40625 20.578125 17.304688 21.015625 17.164062 21.445312 C 17.089844 21.679688 17.132812 21.796875 17.363281 21.886719 C 18.769531 22.445312 20.199219 22.558594 21.636719 22.066406 C 22.710938 21.695312 23.363281 20.933594 23.449219 19.773438 C 23.53125 18.640625 23.023438 17.8125 22.042969 17.273438 Z M 22.042969 17.273438 "/>
</g>
</svg>
