<?xml version="1.0" encoding="UTF-8"?>
<svg xmlns="http://www.w3.org/2000/svg" xmlns:xlink="http://www.w3.org/1999/xlink" width="32px" height="px" viewBox="0 0 32 32" version="1.1">
<g id="surface1">
<path style=" stroke:none;fill-rule:nonzero;fill:rgb(0%,0%,0%);fill-opacity:1;" d="M 16 0 C 7.164062 0 0 7.164062 0 16 C 0 24.835938 7.164062 32 16 32 C 24.835938 32 32 24.835938 32 16 C 32 7.164062 24.835938 0 16 0 Z M 16 2.460938 C 23.460938 2.46875 29.503906 8.519531 29.503906 15.984375 C 29.503906 23.449219 23.449219 29.503906 15.984375 29.503906 C 8.515625 29.503906 2.460938 23.449219 2.460938 15.984375 C 2.460938 12.25 3.976562 8.871094 6.421875 6.421875 C 8.871094 3.976562 12.253906 2.460938 15.988281 2.460938 Z M 16 6.15625 C 10.144531 7.1875 4.921875 12.585938 4.921875 18.460938 C 7.789062 13.402344 9.703125 13.039062 10.230469 13.039062 C 10.761719 13.039062 11.039062 13.3125 11.039062 13.921875 L 11.039062 21.460938 C 11.039062 22.398438 9.21875 22.246094 8.613281 22.152344 C 10.839844 25.464844 16 25.847656 16 25.847656 L 18.460938 23.386719 L 20.921875 24.617188 C 24.808594 22.835938 27.074219 19.03125 27.074219 18.460938 C 26.140625 19.621094 24.882812 20.484375 23.433594 20.910156 L 23.382812 20.925781 C 23.054688 20.925781 22.152344 20.757812 22.152344 20.308594 L 22.152344 11.382812 C 22.152344 10.609375 23.941406 8.246094 24.613281 7.382812 C 20.171875 8.546875 18.882812 10.574219 18.882812 10.574219 C 18.882812 10.574219 18.546875 9.84375 17.230469 9.84375 C 17.898438 10.476562 18.347656 11.332031 18.457031 12.289062 L 18.460938 12.308594 L 18.460938 19.84375 C 17.761719 20.34375 16.933594 20.714844 16.042969 20.914062 L 15.996094 20.921875 C 15.144531 20.921875 14.726562 20.574219 14.726562 19.921875 C 14.726562 19.269531 14.765625 11.074219 14.765625 11.074219 C 14.765625 11.074219 13.535156 11.527344 13.535156 9 C 13.535156 7.734375 15.996094 6.152344 15.996094 6.152344 Z M 16 6.15625 "/>
</g>
</svg>
