<?xml version="1.0" encoding="UTF-8"?>
<svg xmlns="http://www.w3.org/2000/svg" xmlns:xlink="http://www.w3.org/1999/xlink" width="32px" height="px" viewBox="0 0 32 32" version="1.1">
<g id="surface1">
<path style=" stroke:none;fill-rule:nonzero;fill:rgb(0%,90.196078%,46.27451%);fill-opacity:1;" d="M 8.546875 27.40625 L 9.0625 27.664062 C 11.21875 28.957031 13.628906 29.5625 16.042969 29.5625 C 23.628906 29.5625 29.832031 23.355469 29.832031 15.773438 C 29.832031 12.152344 28.367188 8.617188 25.78125 6.03125 C 23.195312 3.449219 19.75 1.980469 16.042969 1.980469 C 8.460938 1.980469 2.253906 8.1875 2.339844 15.859375 C 2.339844 18.445312 3.117188 20.941406 4.410156 23.097656 L 4.753906 23.613281 L 3.375 28.699219 Z M 8.546875 27.40625 "/>
<path style=" stroke:none;fill-rule:nonzero;fill:rgb(100%,100%,100%);fill-opacity:1;" d="M 27.246094 4.652344 C 24.316406 1.636719 20.265625 0 16.128906 0 C 7.339844 0 0.273438 7.152344 0.359375 15.859375 C 0.359375 18.617188 1.132812 21.289062 2.425781 23.699219 L 0.183594 31.886719 L 8.546875 29.734375 C 10.871094 31.027344 13.457031 31.628906 16.042969 31.628906 C 24.746094 31.628906 31.816406 24.476562 31.816406 15.773438 C 31.816406 11.546875 30.175781 7.585938 27.246094 4.652344 Z M 16.128906 28.957031 C 13.800781 28.957031 11.476562 28.355469 9.492188 27.148438 L 8.976562 26.890625 L 3.976562 28.183594 L 5.269531 23.269531 L 4.925781 22.753906 C 1.132812 16.632812 2.941406 8.53125 9.148438 4.738281 C 15.355469 0.949219 23.367188 2.757812 27.160156 8.964844 C 30.953125 15.167969 29.144531 23.183594 22.9375 26.976562 C 20.957031 28.269531 18.542969 28.957031 16.128906 28.957031 Z M 23.714844 19.390625 L 22.765625 18.960938 C 22.765625 18.960938 21.386719 18.355469 20.523438 17.925781 C 20.4375 17.925781 20.351562 17.839844 20.265625 17.839844 C 20.007812 17.839844 19.835938 17.925781 19.664062 18.011719 C 19.664062 18.011719 19.578125 18.097656 18.371094 19.476562 C 18.285156 19.648438 18.113281 19.734375 17.9375 19.734375 L 17.851562 19.734375 C 17.765625 19.734375 17.59375 19.648438 17.507812 19.5625 L 17.078125 19.390625 C 16.128906 18.960938 15.269531 18.445312 14.578125 17.753906 C 14.40625 17.582031 14.148438 17.410156 13.976562 17.238281 C 13.371094 16.632812 12.769531 15.945312 12.335938 15.167969 L 12.25 14.996094 C 12.164062 14.910156 12.164062 14.824219 12.078125 14.652344 C 12.078125 14.480469 12.078125 14.308594 12.164062 14.21875 C 12.164062 14.21875 12.507812 13.789062 12.769531 13.53125 C 12.941406 13.359375 13.027344 13.101562 13.199219 12.925781 C 13.371094 12.667969 13.457031 12.324219 13.371094 12.066406 C 13.285156 11.636719 12.25 9.308594 11.992188 8.789062 C 11.820312 8.53125 11.648438 8.445312 11.390625 8.359375 L 11.128906 8.359375 C 10.957031 8.359375 10.699219 8.359375 10.441406 8.359375 C 10.269531 8.359375 10.097656 8.445312 9.925781 8.445312 L 9.839844 8.53125 C 9.664062 8.617188 9.492188 8.789062 9.320312 8.878906 C 9.148438 9.050781 9.0625 9.222656 8.890625 9.394531 C 8.285156 10.167969 7.941406 11.117188 7.941406 12.066406 C 7.941406 12.753906 8.113281 13.445312 8.371094 14.046875 L 8.460938 14.308594 C 9.234375 15.945312 10.269531 17.410156 11.648438 18.703125 L 11.992188 19.046875 C 12.25 19.304688 12.507812 19.476562 12.683594 19.734375 C 14.492188 21.289062 16.558594 22.40625 18.886719 23.011719 C 19.144531 23.097656 19.492188 23.097656 19.75 23.183594 C 20.007812 23.183594 20.351562 23.183594 20.609375 23.183594 C 21.042969 23.183594 21.558594 23.011719 21.902344 22.839844 C 22.164062 22.667969 22.335938 22.667969 22.507812 22.496094 L 22.679688 22.320312 C 22.851562 22.148438 23.023438 22.0625 23.195312 21.890625 C 23.367188 21.71875 23.542969 21.546875 23.628906 21.375 C 23.800781 21.027344 23.886719 20.597656 23.972656 20.167969 C 23.972656 19.996094 23.972656 19.734375 23.972656 19.5625 C 23.972656 19.5625 23.886719 19.476562 23.714844 19.390625 Z M 23.714844 19.390625 "/>
</g>
</svg>
