<?xml version="1.0" encoding="UTF-8"?>
<svg xmlns="http://www.w3.org/2000/svg" xmlns:xlink="http://www.w3.org/1999/xlink" width="32px" height="px" viewBox="0 0 32 32" version="1.1">
<g id="surface1">
<path style=" stroke:none;fill-rule:nonzero;fill:rgb(100%,0%,0%);fill-opacity:1;" d="M 9.992188 13.496094 C 9.875 13.054688 9.53125 12.710938 9.089844 12.589844 C 8.296875 12.375 5.105469 12.375 5.105469 12.375 C 5.105469 12.375 1.914062 12.382812 1.121094 12.597656 C 0.679688 12.71875 0.335938 13.0625 0.214844 13.503906 C -0.0234375 14.910156 -0.117188 17.058594 0.222656 18.410156 C 0.339844 18.851562 0.683594 19.195312 1.125 19.316406 C 1.917969 19.53125 5.109375 19.53125 5.109375 19.53125 C 5.109375 19.53125 8.300781 19.53125 9.09375 19.316406 C 9.535156 19.195312 9.878906 18.851562 10 18.410156 C 10.253906 17 10.332031 14.855469 9.992188 13.496094 Z M 9.992188 13.496094 "/>
<path style=" stroke:none;fill-rule:nonzero;fill:rgb(100%,100%,100%);fill-opacity:1;" d="M 4.089844 17.488281 L 6.734375 15.953125 L 4.089844 14.417969 Z M 4.089844 17.488281 "/>
<path style=" stroke:none;fill-rule:nonzero;fill:rgb(15.686275%,15.686275%,15.686275%);fill-opacity:1;" d="M 30.703125 14.453125 C 31.050781 14.453125 31.3125 14.519531 31.496094 14.640625 C 31.679688 14.765625 31.808594 14.964844 31.886719 15.230469 C 31.96875 15.5 32 15.867188 32 16.339844 L 32 17.105469 L 30.316406 17.105469 L 30.316406 17.34375 L 30.34375 17.992188 C 30.363281 18.136719 30.394531 18.242188 30.445312 18.304688 C 30.5 18.371094 30.585938 18.402344 30.695312 18.402344 C 30.847656 18.402344 30.953125 18.34375 31.003906 18.226562 C 31.0625 18.109375 31.089844 17.914062 31.09375 17.644531 L 31.96875 17.695312 C 31.972656 17.734375 31.972656 17.789062 31.972656 17.855469 C 31.972656 18.265625 31.863281 18.574219 31.632812 18.777344 C 31.402344 18.980469 31.089844 19.085938 30.675781 19.085938 C 30.179688 19.085938 29.832031 18.929688 29.632812 18.621094 C 29.4375 18.3125 29.332031 17.828125 29.332031 17.179688 L 29.332031 16.386719 C 29.355469 15.273438 29.550781 14.457031 30.703125 14.453125 Z M 18.585938 14.539062 L 18.585938 17.820312 C 18.585938 18.019531 18.605469 18.160156 18.648438 18.246094 C 18.742188 18.429688 18.984375 18.382812 19.117188 18.292969 C 19.191406 18.242188 19.253906 18.171875 19.292969 18.089844 L 19.292969 14.539062 L 20.296875 14.539062 L 20.296875 19.015625 L 19.507812 19.015625 L 19.421875 18.464844 L 19.402344 18.464844 C 19.1875 18.875 18.867188 19.085938 18.441406 19.085938 C 17.785156 19.085938 17.625 18.613281 17.585938 18.132812 L 17.582031 18.097656 C 17.578125 18.023438 17.578125 17.953125 17.574219 17.878906 L 17.574219 14.539062 Z M 23.753906 14.539062 L 23.753906 17.820312 C 23.753906 18.019531 23.773438 18.160156 23.820312 18.246094 C 23.914062 18.429688 24.15625 18.382812 24.285156 18.292969 C 24.363281 18.242188 24.421875 18.171875 24.464844 18.089844 L 24.464844 14.539062 L 25.464844 14.539062 L 25.464844 19.015625 L 24.679688 19.015625 L 24.59375 18.464844 L 24.574219 18.464844 C 24.359375 18.875 24.039062 19.085938 23.613281 19.085938 C 22.957031 19.085938 22.796875 18.613281 22.757812 18.132812 L 22.753906 18.097656 C 22.75 18.023438 22.746094 17.953125 22.746094 17.878906 L 22.746094 14.539062 Z M 15.675781 14.453125 C 16.003906 14.453125 16.269531 14.519531 16.46875 14.65625 C 16.664062 14.792969 16.816406 15.003906 16.90625 15.292969 C 17 15.578125 17.042969 15.964844 17.042969 16.445312 L 17.042969 17.09375 C 17.042969 17.570312 17 17.953125 16.90625 18.242188 C 16.816406 18.527344 16.671875 18.738281 16.46875 18.875 C 16.265625 19.007812 15.988281 19.078125 15.648438 19.078125 C 15.292969 19.085938 15.019531 19.015625 14.816406 18.882812 C 14.613281 18.746094 14.46875 18.535156 14.382812 18.246094 C 14.296875 17.957031 14.257812 17.578125 14.257812 17.101562 L 14.257812 16.453125 C 14.257812 15.972656 14.304688 15.578125 14.402344 15.292969 C 14.5 14.996094 14.652344 14.785156 14.863281 14.65625 C 15.070312 14.523438 15.339844 14.453125 15.675781 14.453125 Z M 27.039062 12.65625 L 27.039062 15.015625 L 27.046875 15.015625 C 27.136719 14.84375 27.253906 14.707031 27.417969 14.601562 C 27.570312 14.5 27.753906 14.445312 27.9375 14.445312 C 28.179688 14.445312 28.363281 14.511719 28.5 14.636719 C 28.636719 14.765625 28.734375 14.96875 28.796875 15.253906 C 28.851562 15.523438 28.886719 15.902344 28.886719 16.378906 L 28.886719 17.132812 C 28.886719 17.792969 28.800781 18.285156 28.644531 18.601562 C 28.480469 18.914062 28.230469 19.074219 27.890625 19.074219 C 27.699219 19.074219 27.53125 19.027344 27.375 18.941406 C 27.234375 18.859375 27.117188 18.746094 27.039062 18.605469 L 27.027344 18.582031 L 27.007812 18.582031 L 26.902344 19.007812 L 26.070312 19.007812 L 26.070312 12.65625 Z M 23.027344 12.886719 L 23.027344 13.699219 L 22.03125 13.699219 L 22.03125 19.015625 L 21.050781 19.015625 L 21.050781 13.699219 L 20.046875 13.699219 L 20.046875 12.886719 Z M 12.222656 12.886719 C 12.230469 12.929688 12.363281 13.519531 12.507812 14.207031 L 12.519531 14.261719 C 12.527344 14.289062 12.53125 14.316406 12.539062 14.34375 L 12.550781 14.398438 C 12.550781 14.40625 12.554688 14.417969 12.554688 14.425781 L 12.566406 14.480469 C 12.570312 14.492188 12.570312 14.5 12.574219 14.507812 L 12.585938 14.566406 L 12.601562 14.648438 C 12.699219 15.121094 12.792969 15.597656 12.851562 15.941406 L 12.875 15.941406 C 12.929688 15.632812 13.007812 15.242188 13.09375 14.839844 L 13.113281 14.734375 C 13.125 14.683594 13.136719 14.632812 13.148438 14.578125 L 13.164062 14.496094 C 13.324219 13.742188 13.484375 13.039062 13.515625 12.90625 L 13.515625 12.898438 C 13.519531 12.890625 13.519531 12.886719 13.519531 12.886719 L 14.523438 12.886719 L 13.363281 17.019531 L 13.363281 19.007812 L 12.371094 19.007812 L 12.371094 17.027344 L 12.367188 17.027344 L 11.21875 12.886719 Z M 15.65625 15.148438 C 15.519531 15.148438 15.425781 15.21875 15.367188 15.371094 C 15.308594 15.519531 15.28125 15.75 15.28125 16.070312 L 15.28125 17.46875 C 15.28125 17.792969 15.308594 18.039062 15.359375 18.179688 C 15.414062 18.324219 15.511719 18.398438 15.65625 18.398438 C 15.792969 18.398438 15.890625 18.324219 15.949219 18.179688 C 16.007812 18.039062 16.035156 17.792969 16.035156 17.46875 L 16.035156 16.070312 C 16.035156 15.75 16.007812 15.515625 15.949219 15.371094 C 15.890625 15.21875 15.792969 15.148438 15.65625 15.148438 Z M 27.214844 15.277344 C 27.136719 15.351562 27.078125 15.441406 27.046875 15.558594 L 27.039062 15.578125 L 27.039062 18.121094 C 27.121094 18.261719 27.234375 18.351562 27.4375 18.359375 C 27.542969 18.359375 27.628906 18.320312 27.695312 18.242188 C 27.757812 18.160156 27.804688 18.03125 27.832031 17.847656 C 27.855469 17.671875 27.871094 17.429688 27.871094 17.121094 L 27.871094 16.496094 C 27.871094 16.144531 27.859375 15.875 27.839844 15.683594 C 27.8125 15.496094 27.78125 15.355469 27.71875 15.277344 C 27.605469 15.113281 27.359375 15.117188 27.214844 15.277344 Z M 30.683594 15.128906 C 30.570312 15.132812 30.492188 15.167969 30.445312 15.226562 C 30.394531 15.292969 30.363281 15.390625 30.34375 15.535156 C 30.324219 15.675781 30.316406 16.167969 30.316406 16.1875 L 30.316406 16.511719 L 31.050781 16.511719 L 31.050781 16.226562 L 31.050781 16.230469 C 31.050781 16.332031 31.046875 16.175781 31.042969 15.980469 L 31.042969 15.957031 C 31.039062 15.785156 31.03125 15.597656 31.023438 15.535156 C 31.003906 15.382812 30.972656 15.277344 30.917969 15.21875 C 30.867188 15.160156 30.789062 15.128906 30.683594 15.128906 Z M 30.683594 15.128906 "/>
</g>
</svg>
